{"title":"Danny Collins(2015)MPEG-4(720p)[DaScubaDude]","uid":13235662,"size":1070407955,"categoryP":"video","categoryS":"movies","magnet":"?xt=urn:btih:78896adca89c83403c11e799a158e25db1f58d73&amp;dn=Danny+Collins%282015%29MPEG-4%28720p%29%5BDaScubaDude%5D&amp;tr=udp%3A%2F%2Ftracker.leechers-paradise.org%3A6969&amp;tr=udp%3A%2F%2Fzer0day.ch%3A1337&amp;tr=udp%3A%2F%2Fopen.demonii.com%3A1337&amp;tr=udp%3A%2F%2Ftracker.coppersurfer.tk%3A6969&amp;tr=udp%3A%2F%2Fexodus.desync.com%3A6969","seeders":0,"leechers":0,"uploader":"dascuba","files":1,"time":1453000636,"description":"Danny Collins (2015)\r\nR  |  106 min  |  Comedy, Drama, Music  |  10 April 2015 (USA)\r\n7.1 Your rating:   -/10   Ratings: 7.1/10 from 17,081 users   Metascore: 58/100 \r\nReviews: 92 user | 130 critic | 31 from Metacritic.com\r\nAn aging rock star decides to change his life when he discovers a 40-year-old letter written to him by John Lennon.\r\n\r\nDirector: Dan Fogelman\r\nWriter: Dan Fogelman (screenplay)\r\nStars: Al Pacino, Annette Bening, Jennifer Garner\r\n\r\nGeneral\r\nComplete name                            :Danny CollinsDANNY_COLLINS_Title16.mp4\r\nFormat                                   : MPEG-4\r\nFormat profile                           : Base Media\r\nCodec ID                                 : isom\r\nFile size                                : 1 021 MiB\r\nDuration                                 : 1h 47mn\r\nOverall bit rate                         : 1 332 Kbps\r\nMovie name                               : DANNY_COLLINS_Title16\r\nWriting application                      : Lavf54.6.100\r\n\r\nVideo\r\nID                                       : 1\r\nFormat                                   : AVC\r\nFormat/Info                              : Advanced Video Codec\r\nFormat profile                           :   \r\nFormat settings, CABAC                   : No\r\nFormat settings, ReFrames                : 6 frames\r\nCodec ID                                 : avc1\r\nCodec ID/Info                            : Advanced Video Coding\r\nDuration                                 : 1h 47mn\r\nBit rate                                 : 1 198 Kbps\r\nWidth                                    : 720 pixels\r\nHeight                                   : 404 pixels\r\nDisplay aspect ratio                     : 16:9\r\nFrame rate mode                          : Constant\r\nFrame rate                               : 29.970 fps\r\nColor space                              : YUV\r\nChroma subsampling                       : 4:2:0\r\nBit depth                                : 8 bits\r\nScan type                                : Progressive\r\nBits/(Pixel*Frame)                       : 0.137\r\nStream size                              : 918 MiB (90%)\r\n\r\nAudio\r\nID                                       : 2\r\nFormat                                   : AAC\r\nFormat/Info                              : Advanced Audio Codec\r\nFormat profile                           : LC\r\nCodec ID                                 : 40\r\nDuration                                 : 1h 47mn\r\nBit rate mode                            : Constant\r\nBit rate                                 : 128 Kbps\r\nChannel(s)                               : 2 channels\r\nChannel positions                        : Front: L R\r\nSampling rate                            : 44.1 KHz\r\nCompression mode                         : Lossy\r\nStream size                              : 98.0 MiB (10%)","torrent":{"xt":"urn:btih:78896adca89c83403c11e799a158e25db1f58d73","amp;dn":"Danny+Collins%282015%29MPEG-4%28720p%29%5BDaScubaDude%5D","amp;tr":["udp%3A%2F%2Ftracker.leechers-paradise.org%3A6969","udp%3A%2F%2Fzer0day.ch%3A1337","udp%3A%2F%2Fopen.demonii.com%3A1337","udp%3A%2F%2Ftracker.coppersurfer.tk%3A6969","udp%3A%2F%2Fexodus.desync.com%3A6969"],"infoHash":"78896adca89c83403c11e799a158e25db1f58d73","infoHashBuffer":{"type":"Buffer","data":[120,137,106,220,168,156,131,64,60,17,231,153,161,88,226,93,177,245,141,115]},"announce":[],"urlList":[]}}